<?xml version="1.0" encoding="UTF-8"?>
<svg version="1.1" xmlns="http://www.w3.org/2000/svg" width="1254" height="1254">
<path d="M0 0 C413.82 0 827.64 0 1254 0 C1254 413.82 1254 827.64 1254 1254 C840.18 1254 426.36 1254 0 1254 C0 840.18 0 426.36 0 0 Z " fill="#F9F9F9" transform="translate(0,0)"/>
<path d="M0 0 C5.16680851 2.82187234 9.46340604 6.84530667 13.8828125 10.6875 C17.2988838 13.64899022 20.81191901 16.46804457 24.375 19.25 C25.25454346 19.93690918 25.25454346 19.93690918 26.15185547 20.63769531 C30.48481441 24.01082914 34.83622181 27.36009809 39.19262695 30.70288086 C46.27094314 36.135869 53.31308171 41.61505881 60.34423828 47.10888672 C62.13646884 48.50207773 63.93816122 49.88120648 65.74609375 51.25390625 C66.65488281 51.95386719 67.56367187 52.65382813 68.5 53.375 C69.26570313 53.95636719 70.03140625 54.53773438 70.8203125 55.13671875 C71.58988281 55.90435547 71.58988281 55.90435547 72.375 56.6875 C72.375 57.6775 72.375 58.6675 72.375 59.6875 C70.70117188 61.30639648 70.70117188 61.30639648 68.34375 63.05859375 C67.47878906 63.70892578 66.61382813 64.35925781 65.72265625 65.02929688 C64.78292969 65.72087891 63.84320312 66.41246094 62.875 67.125 C61.91464844 67.84365234 60.95429687 68.56230469 59.96484375 69.30273438 C57.10749351 71.43908878 54.2416711 73.56367866 51.375 75.6875 C49.32862045 77.21734822 47.2850727 78.75089134 45.2421875 80.28540039 C43.98792094 81.22724831 42.73269725 82.16782285 41.4765625 83.10717773 C35.91669322 87.26661307 30.39450637 91.47471089 24.875 95.6875 C16.70771912 101.92013462 8.51032914 108.11001141 0.28125 114.26074219 C-1.64805146 115.70475317 -3.57444366 117.15256202 -5.5 118.6015625 C-17.37261077 127.53262753 -29.33169803 136.3450674 -41.31640625 145.125 C-49.64669644 151.23509697 -57.91933306 157.41080527 -66.125 163.6875 C-75.87230111 171.14005301 -85.69454775 178.4806344 -95.625 185.6875 C-96.3782959 186.2345459 -97.1315918 186.7815918 -97.90771484 187.34521484 C-102.7675431 190.86121503 -107.66635527 194.31226601 -112.625 197.6875 C-113.63433594 198.37714844 -114.64367187 199.06679688 -115.68359375 199.77734375 C-132.96948123 210.73386328 -153.79580802 213.85722586 -173.86816406 210.07666016 C-191.45365993 205.86739499 -205.07459939 195.99056811 -219.625 185.6875 C-221.15445874 184.61388612 -222.6843733 183.54092116 -224.21484375 182.46875 C-227.68269114 180.03409725 -231.14018287 177.58522638 -234.59375 175.13037109 C-238.03701351 172.68449521 -241.48711982 170.24832175 -244.9375 167.8125 C-245.98490356 167.07302124 -245.98490356 167.07302124 -247.0534668 166.31860352 C-265.74882453 153.1282618 -284.48525353 139.98671192 -303.36621094 127.06323242 C-305.88293619 125.33963655 -308.3948174 123.60912535 -310.90429688 121.875 C-312.0549629 121.08089677 -313.20732203 120.28924151 -314.36132812 119.5 C-315.95620458 118.40594801 -317.54093574 117.29714908 -319.125 116.1875 C-320.0015625 115.5790625 -320.878125 114.970625 -321.78125 114.34375 C-322.3896875 113.7971875 -322.998125 113.250625 -323.625 112.6875 C-323.625 111.6975 -323.625 110.7075 -323.625 109.6875 C-321.42061747 107.68187327 -319.23429415 105.86927424 -316.875 104.0625 C-315.85152466 103.26235474 -315.85152466 103.26235474 -314.80737305 102.44604492 C-312.75540695 100.84799642 -310.69297065 99.26476575 -308.625 97.6875 C-308.06570801 97.26065918 -307.50641602 96.83381836 -306.93017578 96.39404297 C-303.51510999 93.798077 -300.07240616 91.24026679 -296.625 88.6875 C-285.07237568 80.07116769 -273.62461817 71.31844652 -262.21118164 62.51879883 C-260.61917445 61.29361575 -259.02255864 60.07442832 -257.42578125 58.85546875 C-255.69133531 57.512906 -253.97586433 56.14492261 -252.29296875 54.73828125 C-249.10987017 52.12728834 -247.24352667 50.79795119 -243.125 50.0625 C-235.71527937 51.3856644 -229.948169 55.69424836 -224.125 60.25 C-216.8400934 65.82693342 -209.38063126 71.0659421 -201.78466797 76.20751953 C-199.44450701 77.8111885 -197.1298036 79.44782502 -194.81640625 81.08984375 C-179.89514712 91.63378683 -168.28431314 97.88683965 -149.625 95.6875 C-137.61548692 93.35306656 -128.10009277 84.95173779 -118.625 77.6875 C-116.84923597 76.33557274 -115.07318748 74.98401906 -113.296875 73.6328125 C-110.58260376 71.56555346 -107.87004745 69.49620403 -105.16210938 67.4206543 C-99.85249162 63.35566188 -94.48884366 59.40128541 -89.01733398 55.55834961 C-82.60253105 51.02077415 -76.39535749 46.20917266 -70.15673828 41.43408203 C-65.00181673 37.49098314 -59.82481596 33.5931185 -54.5546875 29.8046875 C-50.38984584 26.79489526 -46.25927107 23.73909015 -42.125 20.6875 C-36.07584403 16.22439963 -30.01726817 11.77629036 -23.92578125 7.37109375 C-21.00651887 5.23492722 -18.13688259 3.03678159 -15.28125 0.81640625 C-10.43305703 -2.48814038 -5.27843349 -1.91115695 0 0 Z " fill="#7942FC" transform="translate(751.625,727.3125)"/>
<path d="M0 0 C2.80955406 2.06374516 5.64060888 3.96259242 8.59765625 5.8046875 C15.15898582 9.9090896 21.48853494 14.33439631 27.85351562 18.73388672 C32.32080825 21.81366698 36.8029933 24.8716076 41.28515625 27.9296875 C42.1460083 28.51814453 43.00686035 29.10660156 43.89379883 29.71289062 C48.94124856 33.15611214 54.01044011 36.56508163 59.09765625 39.94921875 C68.81741746 46.41565194 78.48667267 52.95682547 88.16015625 59.4921875 C90.01885279 60.74743643 91.87757658 62.00264501 93.73632812 63.2578125 C98.23208415 66.29380713 102.72750699 69.33029456 107.22265625 72.3671875 C104.86012667 74.79335968 102.513749 77.02056851 99.7890625 79.03125 C99.14751221 79.50788086 98.50596191 79.98451172 97.8449707 80.47558594 C97.16523193 80.97606445 96.48549316 81.47654297 95.78515625 81.9921875 C94.33155544 83.0722766 92.87843587 84.15301366 91.42578125 85.234375 C90.70841797 85.76772461 89.99105469 86.30107422 89.25195312 86.85058594 C86.4920725 88.91319162 83.76216537 91.01125113 81.03515625 93.1171875 C68.33079239 102.92129956 55.59471165 112.69358319 42.70581055 122.25439453 C39.70454938 124.48279708 36.74374142 126.73666085 33.8515625 129.10546875 C33.05504272 129.74367554 33.05504272 129.74367554 32.24243164 130.39477539 C30.8395158 131.523193 29.4521934 132.67092434 28.06640625 133.8203125 C24.36235031 135.83515612 21.29112431 136.25558273 17.22265625 135.3671875 C14.30219625 133.95610511 11.84188413 132.10038405 9.28515625 130.1171875 C7.79203235 129.01122488 6.29853179 127.90577063 4.8046875 126.80078125 C4.04752441 126.23085449 3.29036133 125.66092773 2.51025391 125.07373047 C-1.11667684 122.36804787 -4.82187963 119.77620482 -8.52734375 117.1796875 C-9.94042729 116.18665756 -11.35319372 115.19317621 -12.765625 114.19921875 C-13.77810303 113.48693115 -13.77810303 113.48693115 -14.81103516 112.76025391 C-16.67793473 111.43761559 -18.53179971 110.09865035 -20.3828125 108.75390625 C-26.54554045 104.31521674 -32.47899255 100.62524091 -39.77734375 98.3671875 C-40.38449219 98.17769531 -40.99164062 97.98820312 -41.6171875 97.79296875 C-51.9580572 95.75471414 -63.596656 96.72693101 -72.54394531 102.50878906 C-76.68052007 105.39854694 -80.63019612 108.51969908 -84.58398438 111.65234375 C-88.35586354 114.60132853 -92.2261971 117.41520621 -96.08984375 120.2421875 C-97.70076982 121.4267448 -99.31144535 122.6116429 -100.921875 123.796875 C-101.72447754 124.38694336 -102.52708008 124.97701172 -103.35400391 125.58496094 C-108.11827768 129.08880927 -112.87827776 132.5984624 -117.63842773 136.10791016 C-121.66867482 139.07870432 -125.70128858 142.04618979 -129.73828125 145.0078125 C-137.74603531 150.88676274 -145.70770982 156.80885808 -153.5625 162.890625 C-159.17299423 167.22624472 -164.85747204 171.46419889 -170.54296875 175.70068359 C-172.11208171 176.8710032 -173.67965647 178.04338665 -175.24609375 179.21728516 C-177.79461249 181.12624613 -180.34795719 183.0285879 -182.90234375 184.9296875 C-183.69592285 185.52555664 -184.48950195 186.12142578 -185.30712891 186.73535156 C-191.66297671 191.44770259 -197.35775647 195.46230715 -205.5390625 195.21875 C-213.06184231 193.24050392 -218.92259002 187.25934762 -224.77734375 182.3671875 C-226.15011703 181.25116167 -227.52509837 180.13784603 -228.90234375 179.02734375 C-231.60145624 176.84801245 -234.29036495 174.65702404 -236.97265625 172.45703125 C-240.38003325 169.67408307 -243.84078067 166.97102531 -247.33984375 164.3046875 C-252.65222548 160.251537 -257.88811766 156.1139575 -263.08837891 151.91796875 C-266.30794341 149.32422123 -269.54744887 146.76651804 -272.83984375 144.265625 C-273.49025635 143.76796631 -274.14066895 143.27030762 -274.81079102 142.75756836 C-276.0553784 141.80789026 -277.30567885 140.86564088 -278.56225586 139.93188477 C-280.02282796 138.81262932 -281.40844793 137.59687358 -282.77734375 136.3671875 C-282.77734375 135.3771875 -282.77734375 134.3871875 -282.77734375 133.3671875 C-281.02416992 131.68481445 -281.02416992 131.68481445 -278.5703125 129.85546875 C-277.67940918 129.18435059 -276.78850586 128.51323242 -275.87060547 127.82177734 C-274.9117041 127.1148877 -273.95280273 126.40799805 -272.96484375 125.6796875 C-271.99305176 124.95217285 -271.02125977 124.2246582 -270.02001953 123.47509766 C-267.28021089 121.42839947 -264.53140291 119.39465298 -261.77734375 117.3671875 C-260.20533203 116.20896484 -260.20533203 116.20896484 -258.6015625 115.02734375 C-256.96193977 113.83227583 -255.3186659 112.64220202 -253.671875 111.45703125 C-238.47038921 100.48159954 -223.49657325 89.19247642 -208.51953125 77.9140625 C-203.38352879 74.05133084 -198.22434398 70.22263879 -193.04418945 66.41943359 C-185.98730622 61.23750661 -178.96771394 56.01689844 -172.02734375 50.6796875 C-165.02702449 45.29786462 -157.94096847 40.04791752 -150.80517578 34.84765625 C-141.08317203 27.74986781 -131.39871497 20.600782 -121.77734375 13.3671875 C-120.47659687 12.39318326 -119.1758152 11.41922549 -117.875 10.4453125 C-114.93363365 8.24162216 -112.00812673 6.01810344 -109.0859375 3.7890625 C-73.11987145 -23.4513798 -36.79144688 -27.38346839 0 0 Z " fill="#027EFC" transform="translate(685.77734375,301.6328125)"/>
<path d="M0 0 C2.85969321 1.25573244 5.08167472 2.95790083 7.5546875 4.8671875 C8.07836914 5.26832764 8.60205078 5.66946777 9.14160156 6.08276367 C10.80495633 7.35894124 12.46133024 8.64380246 14.1171875 9.9296875 C16.20012914 11.53436274 18.28346537 13.13852589 20.3671875 14.7421875 C21.17337524 15.36444214 21.17337524 15.36444214 21.99584961 15.99926758 C26.83550814 19.72976392 31.72416162 23.39276902 36.61889648 27.05053711 C42.25071427 31.26527835 47.84185369 35.53187872 53.4296875 39.8046875 C60.25422698 45.02140648 67.12350826 50.16807563 74.0546875 55.2421875 C81.30997699 60.55781883 88.42996634 66.01362971 95.46533203 71.61621094 C98.82032969 74.28394481 102.19161095 76.93112825 105.56738281 79.57250977 C109.00283345 82.26131096 112.41995326 84.9709971 115.82421875 87.69921875 C117.44257353 88.98454474 119.0610617 90.26970282 120.6796875 91.5546875 C121.4418457 92.17126221 122.20400391 92.78783691 122.98925781 93.4230957 C123.71338867 93.99503662 124.43751953 94.56697754 125.18359375 95.15625 C125.82240479 95.66752441 126.46121582 96.17879883 127.11938477 96.70556641 C129.4957593 98.16165121 131.3463133 98.67425621 134.1171875 98.9296875 C136.40749956 97.64809387 138.25832975 96.40521891 140.3046875 94.8046875 C141.55310305 93.8707162 142.80181558 92.93714177 144.05078125 92.00390625 C144.71062012 91.50294434 145.37045898 91.00198242 146.05029297 90.48583984 C149.61288855 87.80358326 153.24505506 85.21812623 156.8671875 82.6171875 C158.38847264 81.51885468 159.90930048 80.41988822 161.4296875 79.3203125 C162.19539063 78.76666016 162.96109375 78.21300781 163.75 77.64257812 C166.18574671 75.88007824 168.6202897 74.11592495 171.0546875 72.3515625 C171.86067383 71.76802002 172.66666016 71.18447754 173.49707031 70.58325195 C175.03356905 69.47076229 176.56941735 68.35737353 178.10449219 67.24291992 C179.48171426 66.2461293 180.86270126 65.25451225 182.24804688 64.26904297 C183.93721722 63.0586474 185.59932949 61.81070717 187.2578125 60.55859375 C190.72027706 58.58612419 192.19452653 58.19113163 196.1171875 58.9296875 C199.02913974 60.47832355 201.61092447 62.38646908 204.2421875 64.3671875 C204.9964502 64.91777832 205.75071289 65.46836914 206.52783203 66.03564453 C208.73537768 67.65263058 210.92808221 69.28785853 213.1171875 70.9296875 C214.14328125 71.69152344 215.169375 72.45335937 216.2265625 73.23828125 C218.11036632 74.64581264 219.98908984 76.06016315 221.86328125 77.48046875 C225.102681 79.93027122 228.3780355 82.32993846 231.65332031 84.73144531 C240.30791701 91.07721101 248.86437559 97.53753069 257.37353516 104.0769043 C263.83055698 109.01430673 270.40916997 113.74542801 277.14111328 118.30126953 C278.83326874 119.46346194 280.48086732 120.69011598 282.1171875 121.9296875 C282.1171875 122.5896875 282.1171875 123.2496875 282.1171875 123.9296875 C280.51928711 125.34326172 280.51928711 125.34326172 278.26953125 126.984375 C277.0319104 127.8971521 277.0319104 127.8971521 275.76928711 128.82836914 C274.4255603 129.80664673 274.4255603 129.80664673 273.0546875 130.8046875 C266.79280136 135.42483519 260.58782476 140.07657754 254.5546875 144.9921875 C246.65839632 151.39144861 238.49716921 157.41436134 230.26367188 163.37109375 C228.41825881 164.71107521 226.58627951 166.06677113 224.7578125 167.4296875 C215.16353647 174.38926597 204.72409846 179.6918716 194.1171875 184.9296875 C193.03566406 185.46851563 191.95414063 186.00734375 190.83984375 186.5625 C155.22082654 202.81335721 111.39961593 199.5131926 75.40454102 186.640625 C59.05425211 180.49738027 44.23820465 171.44310901 30.07910156 161.32226562 C26.66349347 158.89784694 23.19935116 156.54426081 19.7421875 154.1796875 C9.36530177 147.04696733 -0.89960558 139.77668618 -11.09765625 132.390625 C-14.20901245 130.13759577 -17.32599592 127.89279801 -20.44921875 125.65625 C-35.17009441 115.10373672 -49.68662273 104.37018539 -63.26269531 92.36181641 C-64.3285352 91.41964992 -65.39811164 90.4816908 -66.47167969 89.54833984 C-84.74468012 73.64957084 -103.12101789 51.17864932 -105.203125 26.06640625 C-105.19643072 23.00377383 -105.11450836 19.98292409 -104.8828125 16.9296875 C-104.0165625 17.3215625 -103.1503125 17.7134375 -102.2578125 18.1171875 C-81.31039669 27.0219594 -58.79084841 31.17047527 -36.8828125 22.9296875 C-24.3396353 17.78772705 -13.30302698 10.62307415 -3.63671875 1.08203125 C-1.8828125 -0.0703125 -1.8828125 -0.0703125 0 0 Z " fill="#7650FC" transform="translate(441.8828125,555.0703125)"/>
<path d="M0 0 C2.13481875 0.01060061 4.26877327 0.00012182 6.40356445 -0.01269531 C19.78963464 -0.0283302 32.87226023 1.18669763 45.78833008 4.88574219 C46.70694824 5.14444092 47.62556641 5.40313965 48.57202148 5.66967773 C64.72265727 10.35168061 79.80675278 16.37750355 94.10083008 25.26074219 C94.9907666 25.81181641 94.9907666 25.81181641 95.89868164 26.37402344 C100.00949721 28.937904 104.06362193 31.58280641 108.10083008 34.26074219 C108.97940674 34.84227051 108.97940674 34.84227051 109.87573242 35.43554688 C112.96810608 37.48482136 116.05432033 39.54306006 119.13598633 41.60839844 C121.86675355 43.43823771 124.6043078 45.25730589 127.34692383 47.06933594 C185.95576732 85.84274083 185.95576732 85.84274083 207.67358398 106.88476562 C209.01223893 108.17533341 210.37416334 109.44164088 211.73754883 110.70605469 C227.16270606 125.38053708 243.33363091 148.30423267 244.10083008 170.26074219 C244.1628484 173.92936467 244.16254417 177.59218218 244.10083008 181.26074219 C242.63323242 180.66326172 242.63323242 180.66326172 241.13598633 180.05371094 C217.40587147 170.43798223 195.48146282 166.02670798 170.78833008 176.01074219 C163.57389881 179.30552182 157.47004531 183.43841407 151.40551758 188.51855469 C150.5212207 189.25847656 149.63692383 189.99839844 148.72583008 190.76074219 C147.9343457 191.45167969 147.14286133 192.14261719 146.32739258 192.85449219 C144.10083008 194.26074219 144.10083008 194.26074219 142.24951172 194.03344727 C139.68517875 193.1112664 137.73957235 191.85209563 135.49536133 190.30371094 C134.60292725 189.69180908 133.71049316 189.07990723 132.79101562 188.44946289 C131.36656128 187.45885864 131.36656128 187.45885864 129.91333008 186.44824219 C128.92953369 185.77043701 127.9457373 185.09263184 126.93212891 184.39428711 C118.96055834 178.89052295 111.03596005 173.32077566 103.14086914 167.70800781 C101.0660147 166.2360431 98.98656629 164.77080938 96.90551758 163.30761719 C88.84385823 157.63797065 80.82753504 151.91061829 72.84692383 146.12744141 C66.93437556 141.84828592 60.97896603 137.63272657 55.00976562 133.43310547 C50.24577013 130.07824204 45.52006321 126.67539979 40.81567383 123.23730469 C33.86130647 118.174125 26.8466114 113.19346189 19.81567383 108.23730469 C19.08968994 107.72546631 18.36370605 107.21362793 17.61572266 106.6862793 C16.15710266 105.65937589 14.6973182 104.63412435 13.23632812 103.6105957 C10.02206935 101.35305377 6.83224808 99.08071688 3.71801758 96.68652344 C2.7512207 95.94789063 1.78442383 95.20925781 0.78833008 94.44824219 C-0.03280273 93.80242187 -0.85393555 93.15660156 -1.69995117 92.49121094 C-3.76777372 91.03887499 -3.76777372 91.03887499 -5.82861328 91.55371094 C-9.30841066 92.74195445 -12.16558041 94.9736792 -15.14916992 97.07324219 C-15.85372314 97.5631665 -16.55827637 98.05309082 -17.28417969 98.55786133 C-22.88087527 102.47784936 -28.35078471 106.55536586 -33.79516602 110.68310547 C-38.88813822 114.5345011 -44.05712685 118.26682753 -49.27416992 121.94824219 C-50.00627686 122.46572021 -50.73838379 122.98319824 -51.49267578 123.51635742 C-59.15175734 128.89691454 -59.15175734 128.89691454 -64.53198242 128.77246094 C-69.16009642 127.77199405 -72.49836619 124.54913078 -76.12768555 121.64746094 C-78.87851231 119.49411253 -81.71187037 117.45670178 -84.53662109 115.40185547 C-91.75552558 110.14447552 -98.87135494 104.77058015 -105.89916992 99.26074219 C-117.76282609 89.96184685 -129.79958372 80.81038349 -142.37963867 72.49511719 C-142.88108398 72.08777344 -143.3825293 71.68042969 -143.89916992 71.26074219 C-143.89916992 70.60074219 -143.89916992 69.94074219 -143.89916992 69.26074219 C-142.48828125 68.00244141 -142.48828125 68.00244141 -140.48120117 66.56542969 C-139.73217529 66.02265381 -138.98314941 65.47987793 -138.21142578 64.9206543 C-137.38650635 64.3316333 -136.56158691 63.7426123 -135.71166992 63.13574219 C-133.95787488 61.86524904 -132.20531443 60.59305028 -130.45385742 59.31933594 C-129.53830078 58.65401855 -128.62274414 57.98870117 -127.67944336 57.30322266 C-123.18231138 53.99948134 -118.76229054 50.59680963 -114.33666992 47.19824219 C-87.52665551 26.71302123 -60.68788548 8.66297887 -26.75073242 2.93652344 C-24.81807683 2.59742667 -22.88051703 2.25569984 -20.98632812 1.74365234 C-14.05758257 -0.10412264 -7.12264001 -0.04188367 0 0 Z " fill="#0971FD" transform="translate(647.899169921875,469.7392578125)"/>
<path d="M0 0 C2.13481875 0.01060061 4.26877327 0.00012182 6.40356445 -0.01269531 C19.78963464 -0.0283302 32.87226023 1.18669763 45.78833008 4.88574219 C46.70694824 5.14444092 47.62556641 5.40313965 48.57202148 5.66967773 C64.72265727 10.35168061 79.80675278 16.37750355 94.10083008 25.26074219 C94.9907666 25.81181641 94.9907666 25.81181641 95.89868164 26.37402344 C100.00949721 28.937904 104.06362193 31.58280641 108.10083008 34.26074219 C108.97940674 34.84227051 108.97940674 34.84227051 109.87573242 35.43554688 C112.94613866 37.47026384 116.01031139 39.51400882 119.06958008 41.56542969 C122.01927058 43.5422554 124.97952818 45.50234738 127.94458008 47.45605469 C128.76023437 47.99512451 129.57588867 48.53419434 130.41625977 49.08959961 C132.00888828 50.14192906 133.6032251 51.1916788 135.19946289 52.23852539 C135.92488281 52.71894287 136.65030273 53.19936035 137.39770508 53.69433594 C138.040625 54.1177124 138.68354492 54.54108887 139.34594727 54.97729492 C141.11569884 56.27161657 142.59530641 57.67090224 144.10083008 59.26074219 C138.36554058 58.85107865 133.02747032 57.79069485 127.47583008 56.32324219 C90.0889477 46.65700355 51.62308276 54.62098599 18.59326172 73.73120117 C12.12796516 77.55098522 6.05943335 81.69098629 0.10083008 86.26074219 C-2.22064412 87.94414222 -4.56005465 89.60197727 -6.89916992 91.26074219 C-11.9808443 94.88062136 -17.0354577 98.5354048 -22.07495117 102.21386719 C-24.65215248 104.08171433 -27.24325506 105.92871776 -29.83911133 107.77050781 C-30.41580566 108.17978516 -30.9925 108.5890625 -31.58666992 109.01074219 C-32.16336426 109.42001953 -32.74005859 109.82929687 -33.33422852 110.25097656 C-38.82644861 114.16949033 -44.2120288 118.22613795 -49.56982422 122.32617188 C-50.20702393 122.80989258 -50.84422363 123.29361328 -51.50073242 123.79199219 C-52.06099121 124.22060547 -52.62125 124.64921875 -53.19848633 125.09082031 C-56.84342865 127.59822249 -60.06859108 128.97308083 -64.60229492 128.80761719 C-69.17235668 127.71950725 -72.52190744 124.53030936 -76.12768555 121.64746094 C-78.87851231 119.49411253 -81.71187037 117.45670178 -84.53662109 115.40185547 C-91.75552558 110.14447552 -98.87135494 104.77058015 -105.89916992 99.26074219 C-117.76282609 89.96184685 -129.79958372 80.81038349 -142.37963867 72.49511719 C-142.88108398 72.08777344 -143.3825293 71.68042969 -143.89916992 71.26074219 C-143.89916992 70.60074219 -143.89916992 69.94074219 -143.89916992 69.26074219 C-142.48828125 68.00244141 -142.48828125 68.00244141 -140.48120117 66.56542969 C-139.73217529 66.02265381 -138.98314941 65.47987793 -138.21142578 64.9206543 C-137.38650635 64.3316333 -136.56158691 63.7426123 -135.71166992 63.13574219 C-133.95787488 61.86524904 -132.20531443 60.59305028 -130.45385742 59.31933594 C-129.53830078 58.65401855 -128.62274414 57.98870117 -127.67944336 57.30322266 C-123.18231138 53.99948134 -118.76229054 50.59680963 -114.33666992 47.19824219 C-87.52665551 26.71302123 -60.68788548 8.66297887 -26.75073242 2.93652344 C-24.81807683 2.59742667 -22.88051703 2.25569984 -20.98632812 1.74365234 C-14.05758257 -0.10412264 -7.12264001 -0.04188367 0 0 Z " fill="#0284FC" transform="translate(647.899169921875,469.7392578125)"/>
<path d="M0 0 C2.91195224 1.54863605 5.49373697 3.45678158 8.125 5.4375 C8.8792627 5.98809082 9.63352539 6.53868164 10.41064453 7.10595703 C12.61819018 8.72294308 14.81089471 10.35817103 17 12 C18.53914062 13.14275391 18.53914062 13.14275391 20.109375 14.30859375 C21.99317882 15.71612514 23.87190234 17.13047565 25.74609375 18.55078125 C28.9854935 21.00058372 32.260848 23.40025096 35.53613281 25.80175781 C44.19072951 32.14752351 52.74718809 38.60784319 61.25634766 45.1472168 C67.71336948 50.08461923 74.29198247 54.81574051 81.02392578 59.37158203 C82.71608124 60.53377444 84.36367982 61.76042848 86 63 C86 63.66 86 64.32 86 65 C76.54481758 73.41150919 67.35395751 79.10086832 55 82 C53.93446899 82.27058228 53.93446899 82.27058228 52.84741211 82.54663086 C45.35797131 84.28443983 37.97431057 84.34604978 30.3125 84.3125 C29.31280182 84.30926727 29.31280182 84.30926727 28.29290771 84.30596924 C3.74772265 84.17840241 -20.54469183 76.49157815 -40 61 C-40.33 60.01 -40.66 59.02 -41 58 C-41.88300781 57.71125 -42.76601563 57.4225 -43.67578125 57.125 C-47.57632135 55.80495823 -50.16209362 53.68413747 -53.1875 51 C-56.05084991 48.51630119 -58.83781092 46.10812605 -62 44 C-61.83984375 41.75 -61.83984375 41.75 -61 39 C-58.69140625 37 -58.69140625 37 -55.5625 35 C-54.36828119 34.21583719 -53.17565999 33.42923767 -51.984375 32.640625 C-51.34048828 32.21845703 -50.69660156 31.79628906 -50.03320312 31.36132812 C-46.38982067 28.92190683 -42.85730216 26.3296123 -39.3125 23.75 C-37.78262792 22.64182238 -36.2526789 21.53375097 -34.72265625 20.42578125 C-33.1483817 19.2839311 -31.57416398 18.14200259 -30 17 C-26.75113259 14.64426548 -23.50088703 12.29044638 -20.25 9.9375 C-19.51177002 9.40157227 -18.77354004 8.86564453 -18.01293945 8.31347656 C-16.63564617 7.31659064 -15.25457878 6.32489058 -13.86914062 5.33935547 C-12.17997028 4.1289599 -10.51785801 2.88101967 -8.859375 1.62890625 C-5.39691044 -0.34356331 -3.92266097 -0.73855587 0 0 Z " fill="#4D4EFC" transform="translate(638,614)"/>
<path d="M0 0 C1.1590686 -0.0141394 1.1590686 -0.0141394 2.34155273 -0.02856445 C6.88483797 -0.00259722 10.53541604 0.53098061 14.8125 2.25 C14.8125 2.91 14.8125 3.57 14.8125 4.25 C15.51761719 4.33378906 16.22273438 4.41757812 16.94921875 4.50390625 C26.24270168 6.92553686 34.98663294 16.30347988 39.8125 24.25 C45.76842383 36.38028008 46.57321701 48.42392899 42.83984375 61.37890625 C38.07436283 74.69688525 29.63442689 84.01074397 16.8671875 90.09375 C5.52639218 94.38642956 -8.42037364 95.6630749 -19.875 91.125 C-33.11270125 84.5430232 -42.48032973 73.99063716 -47.328125 59.9453125 C-50.39164184 46.77219007 -48.68093176 33.26031859 -41.61328125 21.66796875 C-34.49897927 11.93348096 -24.21202144 2.79213165 -12.046875 0.52734375 C-8.03013594 0.13774201 -4.03409619 0.03770183 0 0 Z " fill="#7B47FC" transform="translate(385.1875,730.75)"/>
<path d="M0 0 C8.13364003 4.4606894 14.37970885 10.0058592 19.34765625 17.8359375 C19.81042969 18.5578125 20.27320313 19.2796875 20.75 20.0234375 C26.67460059 29.91494458 27.96571258 40.90194536 25.66015625 52.20703125 C22.21301845 64.40128121 16.12946327 75.32177714 4.93359375 81.81640625 C-3.56095431 86.2531706 -10.86036175 89.21753449 -20.46484375 89.1484375 C-21.26656006 89.14352295 -22.06827637 89.1386084 -22.89428711 89.13354492 C-28.62121349 89.01988073 -33.47884206 88.43830253 -38.65234375 85.8359375 C-39.40644531 85.47242188 -40.16054688 85.10890625 -40.9375 84.734375 C-52.06626961 78.9749116 -60.4877126 70.10465354 -65.15234375 58.3359375 C-68.26187049 47.74972647 -68.78477552 32.83927586 -63.65234375 22.8359375 C-50.47905783 0.0467087 -24.8866206 -11.86994042 0 0 Z " fill="#029CFC" transform="translate(857.65234375,390.1640625)"/>
<path d="M0 0 C5.38966665 4.58403636 9.58773926 9.65229382 12.98828125 15.84765625 C13.40078125 16.54761719 13.81328125 17.24757813 14.23828125 17.96875 C18.89831974 27.30500768 18.51002605 40.53875866 15.80078125 50.47265625 C10.6196253 64.39398648 2.48066207 72.32535055 -10.53515625 79.17578125 C-20.52982771 83.54268386 -34.45861921 83.74209068 -44.71875 79.9453125 C-58.70289885 73.25102659 -66.44195942 64.24423141 -72.01171875 49.84765625 C-74.84798463 40.00451034 -74.21646067 26.17832031 -70.01171875 16.84765625 C-63.38602601 5.27409477 -54.07935262 -3.43066238 -41.44921875 -8.02734375 C-26.29036619 -11.91787868 -12.60727839 -9.00987081 0 0 Z " fill="#0958FD" transform="translate(402.01171875,474.15234375)"/>
<path d="M0 0 C3.15337236 1.81866548 6.08203763 3.82754498 9 6 C9.86625 6.5775 10.7325 7.155 11.625 7.75 C20.26401112 15.93432632 24.94287517 25.99955919 25.34375 37.82397461 C25.52424683 50.39247661 22.48055058 60.19521833 14.08984375 69.8515625 C5.43059114 78.75359789 -6.0505747 84.04612716 -18.5 84.3125 C-29.29247086 84.21153094 -37.96175735 81.20128897 -46 74 C-46.60457031 73.49855469 -47.20914063 72.99710938 -47.83203125 72.48046875 C-53.29158087 67.59185243 -55.99934851 61.58656938 -59 55 C-59.34909424 54.37319336 -59.69818848 53.74638672 -60.05786133 53.10058594 C-63.40446358 45.63902446 -61.9851553 32.50292852 -59.5 24.9375 C-53.73787404 11.98798724 -44.76287034 3.60049031 -32 -2 C-22.77071452 -5.07642849 -8.69432814 -4.27563852 0 0 Z " fill="#6C49FC" transform="translate(868,668)"/>
<path d="M0 0 C1.23556641 0.01740234 1.23556641 0.01740234 2.49609375 0.03515625 C3.32238281 0.04417969 4.14867187 0.05320312 5 0.0625 C5.63808594 0.07410156 6.27617187 0.08570313 6.93359375 0.09765625 C6.93359375 1.08765625 6.93359375 2.07765625 6.93359375 3.09765625 C5.25390625 4.703125 5.25390625 4.703125 3.05859375 6.28515625 C2.33929688 6.81496094 1.62 7.34476562 0.87890625 7.890625 C-1.06640625 9.09765625 -1.06640625 9.09765625 -3.06640625 9.09765625 C-3.1640625 2.9453125 -3.1640625 2.9453125 -3.06640625 1.09765625 C-2.06640625 0.09765625 -2.06640625 0.09765625 0 0 Z " fill="#E9EDF4" transform="translate(447.06640625,394.90234375)"/>
<path d="M0 0 C1.26328125 0.11085938 2.5265625 0.22171875 3.828125 0.3359375 C4.79234375 0.43132812 5.7565625 0.52671875 6.75 0.625 C7.08 1.945 7.41 3.265 7.75 4.625 C3.67151537 5.98449488 0.57319055 4.76986103 -3.4375 3.6875 C-4.18708984 3.49220703 -4.93667969 3.29691406 -5.70898438 3.09570312 C-7.55793459 2.61285625 -9.40423776 2.11989367 -11.25 1.625 C-7.48564408 -0.86555871 -4.38382623 -0.40590984 0 0 Z " fill="#EBEFF1" transform="translate(697.25,472.375)"/>
<path d="M0 0 C-2 2 -2 2 -4.70556641 2.22705078 C-5.82624512 2.21657715 -6.94692383 2.20610352 -8.1015625 2.1953125 C-9.91914062 2.18564453 -9.91914062 2.18564453 -11.7734375 2.17578125 C-13.04445313 2.15902344 -14.31546875 2.14226563 -15.625 2.125 C-16.90375 2.11597656 -18.1825 2.10695313 -19.5 2.09765625 C-22.66685167 2.07402303 -25.83333424 2.04107629 -29 2 C-29 1.67 -29 1.34 -29 1 C-19.13903251 -0.4137169 -9.95025375 -1.41872597 0 0 Z " fill="#945CFA" transform="translate(610,936)"/>
<path d="M0 0 C3.63 2.31 7.26 4.62 11 7 C6.03429151 8.24142712 3.84452938 7.37261666 -1 6 C-0.67 4.02 -0.34 2.04 0 0 Z " fill="#0E97FB" transform="translate(781,521)"/>
<path d="M0 0 C0.77923828 0.00902344 1.55847656 0.01804687 2.36132812 0.02734375 C4.26185447 0.05066309 6.16222008 0.08652414 8.0625 0.125 C8.0625 0.455 8.0625 0.785 8.0625 1.125 C6.65097656 1.19847656 6.65097656 1.19847656 5.2109375 1.2734375 C3.34308594 1.38558594 3.34308594 1.38558594 1.4375 1.5 C0.20773437 1.56960938 -1.02203125 1.63921875 -2.2890625 1.7109375 C-5.78593372 2.10779869 -8.63076803 2.97321695 -11.9375 4.125 C-14.26962027 4.20022969 -16.6060311 4.21825876 -18.9375 4.125 C-12.9399699 0.1266466 -6.96160819 -0.1551001 0 0 Z " fill="#4482FC" transform="translate(374.9375,464.875)"/>
<path d="M0 0 C0.77923828 0.00451172 1.55847656 0.00902344 2.36132812 0.01367188 C4.26175268 0.02533092 6.16213706 0.04326123 8.0625 0.0625 C8.0625 0.3925 8.0625 0.7225 8.0625 1.0625 C7.21945312 1.12308594 6.37640625 1.18367188 5.5078125 1.24609375 C4.41210938 1.32988281 3.31640625 1.41367187 2.1875 1.5 C1.09695313 1.58121094 0.00640625 1.66242188 -1.1171875 1.74609375 C-3.88478971 1.89251703 -3.88478971 1.89251703 -5.9375 3.0625 C-8.1447923 3.13342842 -10.35417452 3.14665025 -12.5625 3.125 C-13.75101563 3.11597656 -14.93953125 3.10695313 -16.1640625 3.09765625 C-17.07929687 3.08605469 -17.99453125 3.07445312 -18.9375 3.0625 C-13.30955923 -0.68946051 -6.55227896 -0.07299025 0 0 Z " fill="#5EB7FB" transform="translate(634.9375,281.9375)"/>
<path d="M0 0 C0.99 0.33 1.98 0.66 3 1 C2.01 2.175625 2.01 2.175625 1 3.375 C-1.20201441 5.71512812 -1.20201441 5.71512812 -1 8 C-3.97 7.505 -3.97 7.505 -7 7 C-7 6.34 -7 5.68 -7 5 C-5.57421875 3.67578125 -5.57421875 3.67578125 -3.6875 2.3125 C-3.07261719 1.85488281 -2.45773437 1.39726563 -1.82421875 0.92578125 C-1.22222656 0.62027344 -0.62023437 0.31476562 0 0 Z " fill="#157BF9" transform="translate(511,534)"/>
<path d="M0 0 C0.66 0.66 1.32 1.32 2 2 C-0.64 3.65 -3.28 5.3 -6 7 C-6.33 5.35 -6.66 3.7 -7 2 C-4.69 1.34 -2.38 0.68 0 0 Z " fill="#E7EFF5" transform="translate(556,498)"/>
<path d="M0 0 C2.475 0.99 2.475 0.99 5 2 C4.34 3.65 3.68 5.3 3 7 C2.34 7 1.68 7 1 7 C1 8.98 1 10.96 1 13 C0.67 13 0.34 13 0 13 C0 8.71 0 4.42 0 0 Z " fill="#8D70F9" transform="translate(337,572)"/>
<path d="M0 0 C0.66 0.33 1.32 0.66 2 1 C0.92807816 2.3218362 -0.15802695 3.63217927 -1.25 4.9375 C-1.85328125 5.66839844 -2.4565625 6.39929688 -3.078125 7.15234375 C-5.10741134 9.10326334 -6.254407 9.61731779 -9 10 C-8.06409496 8.8944811 -7.12620142 7.79064547 -6.1875 6.6875 C-5.66542969 6.07261719 -5.14335937 5.45773437 -4.60546875 4.82421875 C-3.12827531 3.14575321 -1.59960869 1.56117966 0 0 Z " fill="#1A5FFB" transform="translate(346,474)"/>
<path d="M0 0 C0.33 0.66 0.66 1.32 1 2 C2.11375 2.144375 3.2275 2.28875 4.375 2.4375 C7.93117808 2.98932074 8.93374609 3.20448001 11 6 C5.13190493 5.47606294 0.45126259 4.23891142 -5 2 C-2 0 -2 0 0 0 Z " fill="#A36FF8" transform="translate(569,931)"/>
<path d="M0 0 C3.32368224 1.10789408 3.61563093 1.48436217 5.25 4.375 C5.60578125 4.98085938 5.9615625 5.58671875 6.328125 6.2109375 C7 8 7 8 6 11 C2.90407165 7.4912812 1.25805377 4.50802601 0 0 Z " fill="#884EFB" transform="translate(340,794)"/>
<path d="M0 0 C0.66 0.33 1.32 0.66 2 1 C0.35393205 2.99260857 -0.77546935 3.92515645 -3.25 4.75 C-6.63672776 5.05788434 -9.66145573 4.58915487 -13 4 C-13 3.67 -13 3.34 -13 3 C-12.39671875 2.95101563 -11.7934375 2.90203125 -11.171875 2.8515625 C-10.37265625 2.77679688 -9.5734375 2.70203125 -8.75 2.625 C-7.56664062 2.52058594 -7.56664062 2.52058594 -6.359375 2.4140625 C-3.95629275 2.1104336 -3.95629275 2.1104336 -1.828125 0.8984375 C-1.22484375 0.60195313 -0.6215625 0.30546875 0 0 Z " fill="#CDE1FB" transform="translate(492,493)"/>
<path d="M0 0 C1.1875 1.5 1.1875 1.5 2 4 C1.39095434 6.85144105 0.49729165 9.49304042 -1 12 C-1.99 12.33 -2.98 12.66 -4 13 C-3.52140759 11.39566191 -3.04210442 9.79153584 -2.5625 8.1875 C-2.29566406 7.29417969 -2.02882813 6.40085937 -1.75390625 5.48046875 C-1.19612127 3.64526945 -0.60655425 1.81966274 0 0 Z " fill="#C8E9F9" transform="translate(882,443)"/>
<path d="M0 0 C0 0.99 0 1.98 0 3 C-3.63 2.34 -7.26 1.68 -11 1 C-6.46780033 -1.26609984 -4.82227075 -0.92735976 0 0 Z " fill="#D8ECF7" transform="translate(697,473)"/>
<path d="M0 0 C0.66 0.33 1.32 0.66 2 1 C-2.455 4.465 -2.455 4.465 -7 8 C-7.66 7.67 -8.32 7.34 -9 7 C-6.03 4.69 -3.06 2.38 0 0 Z " fill="#1367F9" transform="translate(426,418)"/>
<path d="M0 0 C1.65 0.99 3.3 1.98 5 3 C3.68 4.32 2.36 5.64 1 7 C-0.0625 5.1875 -0.0625 5.1875 -1 3 C-0.67 2.01 -0.34 1.02 0 0 Z " fill="#239FF8" transform="translate(788,371)"/>
<path d="M0 0 C0.33 0.99 0.66 1.98 1 3 C-2.51187196 5.40814077 -4.72656908 6.36629408 -9 6 C-7.38371879 2.76743757 -4.23006285 2.32663296 -1 1 C-0.67 0.67 -0.34 0.34 0 0 Z " fill="#0D67FB" transform="translate(494,489)"/>
<path d="M0 0 C1.65 0 3.3 0 5 0 C4.01 1.98 3.02 3.96 2 6 C1.34 6 0.68 6 0 6 C0 4.02 0 2.04 0 0 Z " fill="#EAE8F3" transform="translate(810,682)"/>
<path d="M0 0 C3.93673644 1.31224548 6.22719294 2.91910327 9 6 C8.67 6.66 8.34 7.32 8 8 C6.66372225 6.85760183 5.33104612 5.71098945 4 4.5625 C3.2575 3.92441406 2.515 3.28632813 1.75 2.62890625 C1.1725 2.09136719 0.595 1.55382812 0 1 C0 0.67 0 0.34 0 0 Z " fill="#206DFC" transform="translate(458,480)"/>
<path d="M0 0 C0.66 0.66 1.32 1.32 2 2 C-0.64 3.98 -3.28 5.96 -6 8 C-4.85240511 3.40962044 -3.70960782 2.66330818 0 0 Z " fill="#1B75FD" transform="translate(517,472)"/>
<path d="M0 0 C0 0.99 0 1.98 0 3 C-1.8125 4.75 -1.8125 4.75 -4 6 C-4.99 5.67 -5.98 5.34 -7 5 C-4.69 3.35 -2.38 1.7 0 0 Z " fill="#177CFA" transform="translate(504,360)"/>
</svg>
